<?xml version="1.0" standalone="no"?><!DOCTYPE svg PUBLIC "-//W3C//DTD SVG 1.1//EN" "http://www.w3.org/Graphics/SVG/1.1/DTD/svg11.dtd"><svg t="1639719756810" class="icon" viewBox="0 0 1024 1024" version="1.1" xmlns="http://www.w3.org/2000/svg" p-id="4374" xmlns:xlink="http://www.w3.org/1999/xlink" width="200" height="200"><defs><style type="text/css"></style></defs><path d="M768 725.333333h-320l85.333333-85.333333H768M256 725.333333v-106.666666l336.213333-334.933334c8.106667-8.533333 21.76-8.533333 30.293334 0l75.093333 75.093334c8.533333 8.533333 8.533333 21.76 0 30.293333L361.386667 725.333333M810.666667 128H213.333333c-47.36 0-85.333333 37.973333-85.333333 85.333333v597.333334a85.333333 85.333333 0 0 0 85.333333 85.333333h597.333334a85.333333 85.333333 0 0 0 85.333333-85.333333V213.333333a85.333333 85.333333 0 0 0-85.333333-85.333333z" fill="#bfbfbf" p-id="4375"></path></svg>